<svg width="237.417" height="68.75" viewBox="0 0 237.417 68.75" xmlns="http://www.w3.org/2000/svg"><g id="svgGroup" stroke-linecap="round" fill-rule="evenodd" font-size="9pt" stroke="#000" stroke-width="4px" fill="#43ccf8" style="stroke:#000;stroke-width:4px;fill:#43ccf8"><path d="M 116 68.667 L 106.833 68.667 A 4.341 4.341 0 0 1 106.222 68.627 Q 105.642 68.544 105.25 68.292 A 2.372 2.372 0 0 1 104.807 67.916 Q 104.618 67.715 104.439 67.451 A 5.539 5.539 0 0 1 104.167 67 L 89.083 40.334 L 71.5 40.334 L 71.5 65.75 A 4.252 4.252 0 0 1 71.365 66.844 A 3.49 3.49 0 0 1 70.958 67.792 A 1.774 1.774 0 0 1 69.747 68.612 A 2.907 2.907 0 0 1 69.167 68.667 L 61.583 68.667 A 2.817 2.817 0 0 1 60.867 68.581 A 1.866 1.866 0 0 1 59.75 67.792 A 3.479 3.479 0 0 1 59.186 66.16 A 4.375 4.375 0 0 1 59.167 65.75 L 59.167 30.834 A 4.201 4.201 0 0 1 59.278 29.845 A 3.233 3.233 0 0 1 59.708 28.834 A 1.719 1.719 0 0 1 60.679 28.122 Q 61.073 28 61.583 28 L 97.833 28 Q 99.75 28 100.875 27.375 Q 102 26.75 102.583 25.667 Q 103.167 24.584 103.375 23.167 A 19.813 19.813 0 0 0 103.569 20.996 A 23.083 23.083 0 0 0 103.583 20.167 A 21.625 21.625 0 0 0 103.485 18.069 A 18.615 18.615 0 0 0 103.375 17.167 A 8.448 8.448 0 0 0 103.048 15.756 A 6.715 6.715 0 0 0 102.583 14.667 Q 102 13.584 100.875 12.959 Q 99.75 12.334 97.833 12.334 L 61.583 12.334 A 3.334 3.334 0 0 1 60.896 12.268 Q 60.491 12.182 60.191 11.986 A 1.646 1.646 0 0 1 59.708 11.5 A 3.314 3.314 0 0 1 59.222 10.213 A 4.412 4.412 0 0 1 59.167 9.5 L 59.167 2.917 A 4.252 4.252 0 0 1 59.302 1.823 A 3.49 3.49 0 0 1 59.708 0.875 A 1.752 1.752 0 0 1 60.785 0.097 Q 61.096 0.012 61.474 0.002 A 3.916 3.916 0 0 1 61.583 0 L 100 0 A 23.446 23.446 0 0 1 103.296 0.218 Q 105.894 0.588 107.833 1.584 A 12.732 12.732 0 0 1 111.83 4.731 A 12.259 12.259 0 0 1 112.708 5.917 A 17.265 17.265 0 0 1 114.68 10.131 A 21.409 21.409 0 0 1 115.25 12.334 A 37.314 37.314 0 0 1 115.941 17.863 A 44.04 44.04 0 0 1 116 20.167 Q 116 23.667 115.458 27.042 A 20.286 20.286 0 0 1 114.388 31.093 A 17.43 17.43 0 0 1 113.458 33.125 Q 112 35.834 109.5 37.709 A 11.17 11.17 0 0 1 106.523 39.277 Q 104.938 39.841 103 40.084 A 20.254 20.254 0 0 1 103.276 40.511 Q 103.672 41.139 104.326 42.24 A 200.9 200.9 0 0 1 104.75 42.959 A 703.654 703.654 0 0 0 105.924 44.946 Q 106.729 46.305 107.667 47.875 A 1116.068 1116.068 0 0 1 110.237 52.203 A 1261.682 1261.682 0 0 1 111.125 53.709 A 492.974 492.974 0 0 1 112.854 56.667 A 408.956 408.956 0 0 1 114.458 59.459 A 181.034 181.034 0 0 1 115.193 60.761 Q 116.223 62.606 116.936 63.997 A 63.851 63.851 0 0 1 116.958 64.042 A 30.909 30.909 0 0 1 117.284 64.697 Q 117.751 65.667 117.873 66.142 A 1.156 1.156 0 0 1 117.917 66.417 A 3.382 3.382 0 0 1 117.825 67.221 A 2.641 2.641 0 0 1 117.5 68 A 1.319 1.319 0 0 1 116.77 68.557 Q 116.44 68.667 116 68.667 Z M 12.833 14.417 L 12.833 25.167 A 3.094 3.094 0 0 0 12.925 25.941 A 2.164 2.164 0 0 0 13.542 27 A 2.486 2.486 0 0 0 14.302 27.5 A 2.255 2.255 0 0 0 15.167 27.667 L 40.167 27.667 A 16.725 16.725 0 0 1 42.86 27.872 Q 44.953 28.214 46.542 29.125 A 11.272 11.272 0 0 1 50.583 33 A 15.778 15.778 0 0 1 52.288 36.84 A 19.063 19.063 0 0 1 52.708 38.542 Q 53.333 41.667 53.333 44.917 L 53.333 52.25 A 27.12 27.12 0 0 1 52.631 58.477 A 25.578 25.578 0 0 1 52.625 58.5 A 16.163 16.163 0 0 1 51.475 61.798 A 13.686 13.686 0 0 1 50.333 63.75 A 11.468 11.468 0 0 1 46.208 67.334 Q 43.667 68.667 40 68.667 L 2.417 68.667 A 3.334 3.334 0 0 1 1.729 68.601 Q 1.324 68.515 1.024 68.319 A 1.646 1.646 0 0 1 0.542 67.834 A 3.314 3.314 0 0 1 0.056 66.547 A 4.412 4.412 0 0 1 0 65.834 L 0 59.167 A 4.201 4.201 0 0 1 0.111 58.178 A 3.233 3.233 0 0 1 0.542 57.167 A 1.719 1.719 0 0 1 1.512 56.456 Q 1.906 56.334 2.417 56.334 L 38 56.334 A 4.158 4.158 0 0 0 38.9 56.244 Q 39.424 56.127 39.792 55.86 A 1.967 1.967 0 0 0 40.5 54.875 A 9.404 9.404 0 0 0 40.99 52.215 A 10.829 10.829 0 0 0 41 51.75 L 41 44.584 A 9.688 9.688 0 0 0 40.5 41.5 A 2.058 2.058 0 0 0 39.796 40.478 Q 39.165 40 38.083 40 L 13.083 40 Q 6.167 40 3.125 36.084 Q 0.083 32.167 0.083 25.167 L 0.083 14.417 A 22.899 22.899 0 0 1 0.596 9.656 A 25.291 25.291 0 0 1 0.667 9.334 Q 1.25 6.75 2.708 4.709 A 10.516 10.516 0 0 1 5.295 2.188 A 13.277 13.277 0 0 1 6.708 1.334 A 10.612 10.612 0 0 1 9.212 0.422 Q 11 0 13.25 0 L 49.167 0 Q 50.417 0 50.958 0.834 A 3.314 3.314 0 0 1 51.445 2.12 A 4.412 4.412 0 0 1 51.5 2.834 L 51.5 9.5 A 4.201 4.201 0 0 1 51.389 10.489 A 3.233 3.233 0 0 1 50.958 11.5 Q 50.417 12.333 49.17 12.334 A 2.694 2.694 0 0 1 49.167 12.334 L 15.25 12.334 A 2.5 2.5 0 0 0 14.124 12.609 A 3.397 3.397 0 0 0 13.625 12.917 A 2.091 2.091 0 0 0 13.135 13.412 A 1.731 1.731 0 0 0 12.833 14.417 Z M 134.083 14.417 L 134.083 25.167 A 3.094 3.094 0 0 0 134.175 25.941 A 2.164 2.164 0 0 0 134.792 27 A 2.486 2.486 0 0 0 135.552 27.5 A 2.255 2.255 0 0 0 136.417 27.667 L 161.417 27.667 A 16.725 16.725 0 0 1 164.11 27.872 Q 166.203 28.214 167.792 29.125 A 11.272 11.272 0 0 1 171.833 33 A 15.778 15.778 0 0 1 173.538 36.84 A 19.063 19.063 0 0 1 173.958 38.542 Q 174.583 41.667 174.583 44.917 L 174.583 52.25 A 27.12 27.12 0 0 1 173.881 58.477 A 25.578 25.578 0 0 1 173.875 58.5 A 16.163 16.163 0 0 1 172.725 61.798 A 13.686 13.686 0 0 1 171.583 63.75 A 11.468 11.468 0 0 1 167.458 67.334 Q 164.917 68.667 161.25 68.667 L 123.667 68.667 A 3.334 3.334 0 0 1 122.979 68.601 Q 122.574 68.515 122.274 68.319 A 1.646 1.646 0 0 1 121.792 67.834 A 3.314 3.314 0 0 1 121.306 66.547 A 4.412 4.412 0 0 1 121.25 65.834 L 121.25 59.167 A 4.201 4.201 0 0 1 121.361 58.178 A 3.233 3.233 0 0 1 121.792 57.167 A 1.719 1.719 0 0 1 122.762 56.456 Q 123.156 56.334 123.667 56.334 L 159.25 56.334 A 4.158 4.158 0 0 0 160.15 56.244 Q 160.674 56.127 161.042 55.86 A 1.967 1.967 0 0 0 161.75 54.875 A 9.404 9.404 0 0 0 162.24 52.215 A 10.829 10.829 0 0 0 162.25 51.75 L 162.25 44.584 A 9.688 9.688 0 0 0 161.75 41.5 A 2.058 2.058 0 0 0 161.046 40.478 Q 160.415 40 159.333 40 L 134.333 40 Q 127.417 40 124.375 36.084 Q 121.333 32.167 121.333 25.167 L 121.333 14.417 A 22.899 22.899 0 0 1 121.846 9.656 A 25.291 25.291 0 0 1 121.917 9.334 Q 122.5 6.75 123.958 4.709 A 10.516 10.516 0 0 1 126.545 2.188 A 13.277 13.277 0 0 1 127.958 1.334 A 10.612 10.612 0 0 1 130.462 0.422 Q 132.25 0 134.5 0 L 170.417 0 Q 171.667 0 172.208 0.834 A 3.314 3.314 0 0 1 172.695 2.12 A 4.412 4.412 0 0 1 172.75 2.834 L 172.75 9.5 A 4.201 4.201 0 0 1 172.639 10.489 A 3.233 3.233 0 0 1 172.208 11.5 Q 171.667 12.333 170.42 12.334 A 2.694 2.694 0 0 1 170.417 12.334 L 136.5 12.334 A 2.5 2.5 0 0 0 135.374 12.609 A 3.397 3.397 0 0 0 134.875 12.917 A 2.091 2.091 0 0 0 134.385 13.412 A 1.731 1.731 0 0 0 134.083 14.417 Z M 183 0 L 221.5 0 A 24.119 24.119 0 0 1 224.764 0.208 Q 226.462 0.44 227.879 0.932 A 12.17 12.17 0 0 1 229.333 1.542 Q 232.417 3.084 234.208 5.792 A 16.358 16.358 0 0 1 236.16 9.949 A 20.244 20.244 0 0 1 236.708 12.125 A 38.33 38.33 0 0 1 237.344 17.303 A 46.079 46.079 0 0 1 237.417 19.917 A 43.938 43.938 0 0 1 237.082 25.429 A 37.987 37.987 0 0 1 236.708 27.792 A 19.738 19.738 0 0 1 235.61 31.561 A 15.985 15.985 0 0 1 234.208 34.25 A 12.757 12.757 0 0 1 229.62 38.47 A 15.022 15.022 0 0 1 229.333 38.625 Q 226.25 40.25 221.5 40.25 L 193 40.25 L 193 65.834 A 4.252 4.252 0 0 1 192.865 66.927 A 3.49 3.49 0 0 1 192.458 67.875 A 1.774 1.774 0 0 1 191.247 68.696 A 2.907 2.907 0 0 1 190.667 68.75 L 183 68.75 A 2.803 2.803 0 0 1 182.32 68.673 A 1.755 1.755 0 0 1 181.208 67.875 A 3.611 3.611 0 0 1 180.701 66.399 A 4.597 4.597 0 0 1 180.667 65.834 L 180.667 30.834 A 4.201 4.201 0 0 1 180.778 29.845 A 3.233 3.233 0 0 1 181.208 28.834 Q 181.749 28.001 182.997 28 A 2.694 2.694 0 0 1 183 28 L 219.333 28 Q 221.25 28 222.375 27.375 Q 223.5 26.75 224.083 25.667 Q 224.667 24.584 224.875 23.167 A 19.813 19.813 0 0 0 225.069 20.996 A 23.083 23.083 0 0 0 225.083 20.167 A 21.625 21.625 0 0 0 224.985 18.069 A 18.615 18.615 0 0 0 224.875 17.167 A 8.448 8.448 0 0 0 224.548 15.756 A 6.715 6.715 0 0 0 224.083 14.667 Q 223.5 13.584 222.375 12.959 Q 221.25 12.334 219.333 12.334 L 183 12.334 Q 181.75 12.334 181.208 11.5 A 3.314 3.314 0 0 1 180.722 10.213 A 4.412 4.412 0 0 1 180.667 9.5 Q 180.667 8.672 180.565 7.3 A 65.705 65.705 0 0 0 180.542 7 A 24.132 24.132 0 0 1 180.467 5.1 A 24.096 24.096 0 0 1 180.5 3.834 A 8.77 8.77 0 0 1 180.656 2.558 Q 180.796 1.869 181.048 1.293 A 5.196 5.196 0 0 1 181.125 1.125 A 2.013 2.013 0 0 1 181.662 0.423 Q 182.05 0.108 182.604 0.028 A 2.764 2.764 0 0 1 183 0 Z" vector-effect="non-scaling-stroke"/></g></svg>