<svg width="45" height="40" viewBox="0 0 45 40" fill="none" xmlns="http://www.w3.org/2000/svg">
<g clip-path="url(#clip0_102_62)">
<path fill-rule="evenodd" clip-rule="evenodd" d="M16.137 22.668L22.5045 26.538L28.6425 22.774L42.4012 34.84C42.039 34.944 41.652 35 41.2493 35H3.75075C3.25575 35 2.78325 34.914 2.349 34.76L16.137 22.668ZM45 12.752V31.666C45 32.16 44.8785 32.628 44.6625 33.05L31.176 21.222L45 12.752ZM2.1231e-06 12.858L13.5945 21.122L0.238502 32.838C0.0803176 32.4633 -0.000477525 32.0662 2.1231e-06 31.666V12.858ZM41.2493 5C43.3193 5 45 6.492 45 8.334V9.506L22.4955 23.296L2.1231e-06 9.62V8.334C2.1231e-06 6.494 1.6785 5 3.75075 5H41.2493Z" fill="#222222"/>
</g>
<defs>
<clipPath id="clip0_102_62">
<rect width="45" height="40" fill="white"/>
</clipPath>
</defs>
</svg>
