<svg width="31" height="31" viewBox="0 0 31 31" fill="none" xmlns="http://www.w3.org/2000/svg">
<path d="M11.4664 2.97982L25.3342 9.87639C31.5553 12.9702 31.5553 18.0298 25.3342 21.1236L11.4664 28.0202C2.13479 32.6609 -1.67237 28.8581 2.99343 19.5928L4.40289 16.8052C4.75931 16.0962 4.75931 14.9199 4.40289 14.2109L2.99343 11.4072C-1.67237 2.14191 2.15099 -1.66087 11.4664 2.97982ZM4.87271 15.5H13.6211H4.87271Z" fill="#CBDDFF"/>
<path d="M4.87271 15.5H13.6211M11.4664 2.97982L25.3342 9.87639C31.5553 12.9702 31.5553 18.0298 25.3342 21.1236L11.4664 28.0202C2.13479 32.6609 -1.67237 28.8581 2.99343 19.5928L4.40289 16.8052C4.75931 16.0962 4.75931 14.9199 4.40289 14.2109L2.99343 11.4072C-1.67237 2.14191 2.15099 -1.66087 11.4664 2.97982Z" stroke="black" stroke-width="2" stroke-linecap="round" stroke-linejoin="round"/>
</svg>
