<svg width="45" height="45" viewBox="0 0 45 45" fill="#fff" xmlns="http://www.w3.org/2000/svg">
<path d="M22.5011 0C10.0693 0 3.70146e-06 10.3237 3.70146e-06 23.0697C-0.00270556 27.9124 1.48192 32.633 4.24329 36.5619C7.00465 40.4907 10.9025 43.4284 15.384 44.9582C16.5091 45.1589 16.9321 44.4668 16.9321 43.8601C16.9321 43.3133 16.9028 41.4977 16.9028 39.5645C11.2506 40.6326 9.78799 38.1526 9.33797 36.8538C9.08371 36.1894 7.9879 34.1431 7.0316 33.5941C6.24407 33.1627 5.11901 32.0945 7.00235 32.0668C8.77544 32.0369 10.04 33.7394 10.463 34.4315C12.4881 37.9196 15.7215 36.9392 17.0154 36.3347C17.2134 34.8352 17.8029 33.8271 18.4509 33.2503C13.4444 32.6736 8.21291 30.6827 8.21291 21.8585C8.21291 19.3485 9.08371 17.2746 10.5193 15.6574C10.2943 15.0806 9.50673 12.716 10.7443 9.54392C10.7443 9.54392 12.6276 8.9395 16.9321 11.9109C18.7638 11.3896 20.6564 11.1273 22.5574 11.1311C24.47 11.1311 26.3826 11.3895 28.1827 11.9086C32.4871 8.90951 34.3705 9.54623 34.3705 9.54623C35.608 12.7183 34.8205 15.083 34.5955 15.6597C36.0288 17.2746 36.9018 19.3209 36.9018 21.8585C36.9018 30.7127 31.6433 32.6736 26.6346 33.2503C27.4514 33.9701 28.1557 35.3543 28.1557 37.5182C28.1557 40.6026 28.1264 43.0826 28.1264 43.8624C28.1264 44.4668 28.5494 45.1866 29.6745 44.9559C34.1406 43.4093 38.0213 40.4659 40.7705 36.5399C43.5197 32.6138 44.9989 27.9028 45 23.0697C45 10.3237 34.9307 0 22.4989 0H22.5011Z" fill="black"/>
</svg>
