<?xml version="1.0" encoding="iso-8859-1"?>
<!-- Uploaded to: SVG Repo, www.svgrepo.com, Generator: SVG Repo Mixer Tools -->
<svg height="800px" width="800px" version="1.1" id="Layer_1" xmlns="http://www.w3.org/2000/svg" xmlns:xlink="http://www.w3.org/1999/xlink" 
	 viewBox="0 0 512.001 512.001" xml:space="preserve">
<g>
	<polygon style="fill:#FFFE9F;" points="389.565,302.327 343.838,326.368 352.571,275.45 315.577,239.389 366.701,231.96 
		389.565,185.633 412.429,231.96 463.554,239.389 426.559,275.45 435.292,326.368 	"/>
	<polygon style="fill:#FFFE9F;" points="456.233,170.198 428.645,184.702 433.914,153.983 411.596,132.228 442.439,127.745 
		456.233,99.797 470.026,127.745 500.87,132.228 478.551,153.983 483.82,184.702 	"/>
</g>
<path style="fill:#E5E5E5;" d="M105.095,448.842c17.711,13.814,28.328,19.187,28.328,19.187
	C169.472,488.914,211.34,500.87,256,500.87c44.603,0,86.417-11.931,122.435-32.767C305.245,425.763,256,346.635,256,256
	S305.245,86.238,378.435,43.898C342.417,23.061,300.603,11.131,256,11.131C120.762,11.131,11.13,120.762,11.13,256
	c0,65.634,25.823,125.236,67.862,169.203L105.095,448.842"/>
<g>
	<circle style="fill:#AFAFAF;" cx="77.913" cy="278.261" r="22.261"/>
	<circle style="fill:#AFAFAF;" cx="166.957" cy="367.305" r="45.635"/>
</g>
<path d="M77.913,244.87c-18.412,0-33.391,14.979-33.391,33.391s14.979,33.391,33.391,33.391s33.391-14.979,33.391-33.391
	S96.325,244.87,77.913,244.87z M77.913,289.392c-6.137,0-11.13-4.993-11.13-11.13s4.993-11.13,11.13-11.13s11.13,4.993,11.13,11.13
	S84.05,289.392,77.913,289.392z"/>
<path d="M166.957,424.07c31.301,0,56.765-25.464,56.765-56.765s-25.464-56.765-56.765-56.765s-56.765,25.464-56.765,56.765
	S135.656,424.07,166.957,424.07z M166.957,332.8c19.025,0,34.504,15.478,34.504,34.504s-15.479,34.504-34.504,34.504
	s-34.504-15.478-34.504-34.504S147.931,332.8,166.957,332.8z"/>
<path d="M384.009,458.468C311.915,416.763,267.13,339.181,267.13,256S311.915,95.238,384.009,53.532
	c3.439-1.989,5.556-5.661,5.556-9.635s-2.117-7.644-5.556-9.635C345.262,11.849,300.997,0,256,0
	C187.62,0,123.333,26.629,74.981,74.982C26.628,123.333,0,187.62,0,256c0,66.225,25.196,129.046,70.948,176.895
	c4.248,4.443,11.293,4.6,15.737,0.353c4.443-4.248,4.6-11.294,0.352-15.737C45.265,373.825,22.261,316.466,22.261,256
	C22.261,127.117,127.116,22.261,256,22.261c34.768,0,69.049,7.742,100.198,22.519c-30.887,21.201-56.938,49.043-76.016,81.406
	C257.081,165.375,244.87,210.265,244.87,256s12.211,90.625,35.314,129.814c19.079,32.363,45.129,60.204,76.016,81.406
	c-31.151,14.778-65.431,22.519-100.2,22.519c-41.149,0-81.606-10.838-116.998-31.342c-5.32-3.082-12.129-1.268-15.211,4.051
	s-1.268,12.129,4.051,15.211C166.62,500.125,210.936,512,256,512c44.997,0,89.262-11.848,128.009-34.263
	c3.439-1.99,5.556-5.661,5.556-9.634S387.448,460.457,384.009,458.468z"/>
<path d="M102.923,437.927c-0.712,0.145-1.414,0.356-2.081,0.634c-0.679,0.278-1.325,0.623-1.926,1.024
	c-0.612,0.412-1.18,0.868-1.692,1.391c-2.07,2.07-3.261,4.931-3.261,7.869c0,0.723,0.078,1.458,0.223,2.17
	c0.134,0.712,0.356,1.414,0.634,2.081c0.278,0.668,0.623,1.313,1.024,1.926c0.401,0.601,0.868,1.18,1.38,1.692
	s1.08,0.979,1.692,1.38c0.601,0.401,1.247,0.746,1.926,1.024c0.668,0.278,1.369,0.49,2.081,0.634
	c0.712,0.145,1.447,0.223,2.17,0.223c2.927,0,5.799-1.191,7.869-3.261c0.512-0.512,0.979-1.091,1.38-1.692
	c0.401-0.612,0.746-1.258,1.024-1.926c0.278-0.668,0.501-1.369,0.634-2.081c0.145-0.712,0.223-1.447,0.223-2.17
	c0-2.938-1.191-5.799-3.261-7.869C110.381,438.384,106.541,437.204,102.923,437.927z"/>
<path d="M465.155,228.375l-45.334-6.588l-20.274-41.08c-1.875-3.799-5.744-6.204-9.982-6.204c-4.237,0-8.106,2.405-9.982,6.204
	l-20.274,41.08l-45.334,6.588c-4.193,0.609-7.676,3.546-8.984,7.575c-1.309,4.029-0.217,8.452,2.816,11.41l32.805,31.977
	l-7.743,45.151c-0.717,4.176,1.001,8.396,4.429,10.887c3.428,2.49,7.973,2.818,11.721,0.847l40.547-21.318l40.548,21.317
	c1.628,0.856,3.407,1.279,5.178,1.279c2.307,0,4.605-0.717,6.544-2.126c3.427-2.491,5.145-6.711,4.429-10.887l-7.743-45.151
	l32.805-31.977c3.034-2.957,4.125-7.381,2.816-11.41C472.831,231.921,469.348,228.983,465.155,228.375z M418.79,267.479
	c-2.622,2.557-3.82,6.241-3.201,9.852l4.921,28.691l-25.765-13.546c-1.621-0.853-3.4-1.279-5.179-1.279s-3.558,0.426-5.179,1.279
	l-25.765,13.546l4.921-28.691c0.619-3.611-0.579-7.295-3.201-9.852l-20.846-20.319l28.808-4.186c3.625-0.526,6.758-2.804,8.38-6.088
	l12.881-26.104l12.882,26.104c1.622,3.285,4.755,5.562,8.38,6.088l28.808,4.186L418.79,267.479z"/>
<path d="M511.456,128.788c-1.31-4.029-4.793-6.967-8.986-7.575l-25.052-3.641l-11.203-22.702c-1.875-3.799-5.744-6.204-9.982-6.204
	c-4.237,0-8.106,2.405-9.982,6.204l-11.203,22.702l-25.052,3.641c-4.194,0.609-7.676,3.546-8.986,7.575
	c-1.309,4.029-0.217,8.452,2.816,11.41l18.128,17.671l-4.28,24.951c-0.717,4.176,1.001,8.396,4.429,10.887
	c3.428,2.491,7.973,2.818,11.721,0.847l22.408-11.78l22.408,11.78c1.628,0.856,3.407,1.279,5.178,1.279
	c2.307,0,4.605-0.717,6.544-2.126c3.427-2.49,5.145-6.711,4.429-10.887l-4.28-24.951l18.128-17.671
	C511.673,137.241,512.765,132.818,511.456,128.788z M470.782,146.013c-2.622,2.557-3.82,6.241-3.201,9.852l1.457,8.49l-7.625-4.009
	c-1.621-0.853-3.4-1.279-5.179-1.279c-1.779,0-3.558,0.426-5.179,1.279l-7.625,4.009l1.457-8.49
	c0.619-3.611-0.579-7.295-3.201-9.852l-6.17-6.013l8.525-1.239c3.626-0.526,6.76-2.804,8.381-6.088l3.812-7.725l3.812,7.725
	c1.622,3.285,4.755,5.562,8.381,6.088l8.525,1.239L470.782,146.013z"/>
</svg>