<svg width="147" height="146" viewBox="0 0 147 146" fill="none" xmlns="http://www.w3.org/2000/svg">
<path d="M73.5799 145.783C71.3991 145.783 69.1858 145.264 67.2655 144.282L47.1831 133.749C44.1886 132.249 45.6533 131.729 46.6298 131.441C50.6332 130.2 51.4469 129.94 55.7108 127.776C56.1665 127.545 56.7523 127.632 57.208 127.891L72.636 136C73.1893 136.289 73.9704 136.289 74.4912 136L134.608 105.238C135.161 104.95 135.52 104.373 135.52 103.796V42.2718C135.52 41.6658 135.161 41.1175 134.576 40.8001L74.4912 10.067C73.9379 9.77848 73.1893 9.77848 72.636 10.067L12.5841 40.8289C11.9982 41.1175 11.6402 41.6946 11.6402 42.3007V103.796C11.6402 104.373 11.9982 104.95 12.5841 105.21L29.0536 113.636C38.0044 117.589 43.4726 112.943 43.4726 108.24V47.5238C43.4726 46.6581 44.2537 45.9944 45.2302 45.9944H52.8465C53.7904 45.9944 54.6041 46.6581 54.6041 47.5238V108.268C54.6041 118.83 48.0944 124.89 36.8001 124.89C33.3175 124.89 30.5834 124.89 22.9671 121.543L7.21363 113.492C3.30781 111.5 0.899231 107.778 0.899231 103.767V42.2718C0.899231 38.2895 3.30781 34.538 7.21363 32.5469L67.2655 1.785C71.0736 -0.119578 76.1186 -0.119578 79.8943 1.785L140.011 32.5757C143.917 34.5669 146.326 38.2895 146.326 42.3007V103.796C146.326 107.778 143.917 111.5 140.011 113.52L79.8943 144.282C77.9739 145.264 75.7932 145.783 73.5799 145.783ZM122.11 85.1537C122.11 73.6397 113.321 70.5808 94.8665 68.4165C76.1837 66.2234 74.2959 65.0979 74.2959 61.231C74.2959 58.0279 75.8908 53.757 89.7239 53.757C102.06 53.757 106.617 56.1233 108.504 63.5108C108.667 64.2033 109.383 64.7228 110.197 64.7228H118.008C118.497 64.7228 118.952 64.5496 119.278 64.2322C119.603 63.9148 119.766 63.4819 119.734 63.049C118.529 50.323 108.993 44.4072 89.7239 44.4072C72.5709 44.4072 62.3507 50.8136 62.3507 61.5773C62.3507 73.2357 72.5383 76.4677 88.9753 77.9106C108.667 79.6131 110.197 82.1814 110.197 85.6155C110.197 91.5601 104.794 94.0995 92.1325 94.0995C76.2163 94.0995 72.7336 90.5501 71.5619 83.5377C71.4317 82.7874 70.7156 82.2392 69.8368 82.2392H62.0577C61.0813 82.2392 60.3327 82.9317 60.3327 83.7686C60.3327 92.7432 65.8333 103.449 92.165 103.449C111.173 103.42 122.11 96.7544 122.11 85.1537Z" fill="#E7FFE4"/>
</svg>
